<mxfile host="app.diagrams.net" agent="Mozilla/5.0 (Windows NT 10.0; Win64; x64; rv:138.0) Gecko/20100101 Firefox/138.0" version="27.0.6">
  <diagram name="UML" id="updatedChemInvUML">
    <mxGraphModel dx="2888" dy="2740" grid="1" gridSize="10" guides="1" tooltips="1" connect="1" arrows="1" fold="1" page="1" pageScale="1" pageWidth="300" pageHeight="300" math="0" shadow="0">
      <root>
        <mxCell id="0" />
        <mxCell id="1" parent="0" />
        <mxCell id="c1" value="&lt;b&gt;Main&lt;/b&gt;&lt;br&gt;----------&lt;br&gt;(no attributes)&lt;br&gt;----------&lt;br&gt;main()" style="shape=rectangle;whiteSpace=wrap;html=1;fontSize=20;strokeWidth=3;" parent="1" vertex="1">
          <mxGeometry x="-246" y="-742" width="250" height="210" as="geometry" />
        </mxCell>
        <mxCell id="c2" value="&lt;b&gt;MainApp&lt;/b&gt;&lt;br&gt;----------&lt;br&gt;primaryStage: Stage&lt;br&gt;----------&lt;br&gt;start()&lt;br&gt;showLoginScreen()&lt;br&gt;showDashboardScreen()&lt;br&gt;logout()" style="shape=rectangle;whiteSpace=wrap;html=1;fontSize=20;strokeWidth=3;" parent="1" vertex="1">
          <mxGeometry x="489" y="-1000" width="250" height="230" as="geometry" />
        </mxCell>
        <mxCell id="c3" value="&lt;b&gt;DashboardController&lt;/b&gt;&lt;br&gt;----------&lt;br&gt;loggedInUser: User&lt;br&gt;sidebarGroup: ToggleGroup&lt;br&gt;----------&lt;br&gt;initialize()&lt;br&gt;setLoggedInUser()&lt;br&gt;handleSearch()&lt;br&gt;handleAdd()&lt;br&gt;handleSDS()&lt;br&gt;handleAdmin()&lt;br&gt;loadCenterModule()" style="shape=rectangle;whiteSpace=wrap;html=1;fontSize=20;strokeWidth=3;" parent="1" vertex="1">
          <mxGeometry x="154" y="-742" width="310" height="330" as="geometry" />
        </mxCell>
        <mxCell id="c4" value="&lt;b&gt;LoginController&lt;/b&gt;&lt;br&gt;----------&lt;br&gt;userManager: UserManager&lt;br&gt;authenticated: User&lt;br&gt;----------&lt;br&gt;getAuthenticatedUser()&lt;br&gt;initialize()&lt;br&gt;handleLogin()" style="shape=rectangle;whiteSpace=wrap;html=1;fontSize=20;strokeWidth=3;" parent="1" vertex="1">
          <mxGeometry x="1014" y="-1000" width="250" height="230" as="geometry" />
        </mxCell>
        <mxCell id="c15" value="&lt;b&gt;User&lt;/b&gt;&lt;br&gt;----------&lt;br&gt;name&lt;br&gt;role&lt;br&gt;----------&lt;br&gt;(getters)" style="shape=rectangle;whiteSpace=wrap;html=1;fontSize=20;strokeWidth=3;" parent="1" vertex="1">
          <mxGeometry x="739" y="-667" width="250" height="180" as="geometry" />
        </mxCell>
        <mxCell id="c7" value="&lt;b&gt;AddRowDialog&lt;/b&gt;&lt;br&gt;----------&lt;br&gt;inputs: Map&lt;br&gt;----------&lt;br&gt;&lt;i&gt;constructor&lt;/i&gt;()" style="shape=rectangle;whiteSpace=wrap;html=1;fontSize=20;strokeWidth=3;" parent="1" vertex="1">
          <mxGeometry x="-246" y="6" width="250" height="170" as="geometry" />
        </mxCell>
        <mxCell id="c8" value="&lt;b&gt;RowDetailsDialog&lt;/b&gt;&lt;br&gt;----------&lt;br&gt;(no attributes)&lt;br&gt;----------&lt;br&gt;&lt;i&gt;constructor&lt;/i&gt;()" style="shape=rectangle;whiteSpace=wrap;html=1;fontSize=20;strokeWidth=3;" parent="1" vertex="1">
          <mxGeometry x="-206" y="323" width="210" height="150" as="geometry" />
        </mxCell>
        <mxCell id="c9" value="&lt;b&gt;SDSController&lt;/b&gt;&lt;br&gt;----------&lt;br&gt;searchField: TextField&lt;br&gt;searchButton: Button&lt;br&gt;&lt;div&gt;SDSdataTable: TableView&lt;/div&gt;&lt;div&gt;...&lt;/div&gt;&lt;div&gt;----------&lt;/div&gt;&lt;div&gt;initialize()&lt;/div&gt;loadTable()&lt;br&gt;doSearch()" style="shape=rectangle;whiteSpace=wrap;html=1;fontSize=20;strokeWidth=3;" parent="1" vertex="1">
          <mxGeometry x="160" y="155" width="270" height="260" as="geometry" />
        </mxCell>
        <mxCell id="c10" value="&lt;b&gt;ColumnData&lt;/b&gt;&lt;br&gt;----------&lt;br&gt;name&lt;br&gt;type&lt;br&gt;primaryKey&lt;br&gt;----------&lt;br&gt;(getters)" style="shape=rectangle;whiteSpace=wrap;html=1;fontSize=20;strokeWidth=3;" parent="1" vertex="1">
          <mxGeometry x="-16" y="557" width="250" height="190" as="geometry" />
        </mxCell>
        <mxCell id="c11" value="&lt;b&gt;ConnectionManager&lt;/b&gt;&lt;br&gt;----------&lt;br&gt;connection: Connection&lt;br&gt;----------&lt;br&gt;getInstance()&lt;br&gt;getConnection()" style="shape=rectangle;whiteSpace=wrap;html=1;fontSize=20;strokeWidth=3;" parent="1" vertex="1">
          <mxGeometry x="474" y="557" width="250" height="190" as="geometry" />
        </mxCell>
        <mxCell id="c12" value="&lt;b&gt;MetadataService&lt;/b&gt;&lt;br&gt;----------&lt;br&gt;connection: Connection&lt;br&gt;----------&lt;br&gt;listTables()&lt;br&gt;getColumns()" style="shape=rectangle;whiteSpace=wrap;html=1;fontSize=20;strokeWidth=3;" parent="1" vertex="1">
          <mxGeometry x="473" y="171" width="250" height="190" as="geometry" />
        </mxCell>
        <mxCell id="c13" value="&lt;b&gt;QueryManager&lt;/b&gt;&lt;br&gt;----------&lt;br&gt;connection: Connection&lt;br&gt;metadata: MetadataService&lt;br&gt;----------&lt;br&gt;selectAll()&lt;br&gt;search()&lt;br&gt;updateRow()&lt;br&gt;insertRow()" style="shape=rectangle;whiteSpace=wrap;html=1;fontSize=20;strokeWidth=3;" parent="1" vertex="1">
          <mxGeometry x="833" y="145" width="268" height="240" as="geometry" />
        </mxCell>
        <mxCell id="c14" value="&lt;b&gt;UserManager&lt;/b&gt;&lt;br&gt;----------&lt;br&gt;connection: Connection&lt;br&gt;----------&lt;br&gt;verifyLogin()&lt;br&gt;createUser()&lt;br&gt;deleteUser()" style="shape=rectangle;whiteSpace=wrap;html=1;fontSize=20;strokeWidth=3;" parent="1" vertex="1">
          <mxGeometry x="1014" y="542" width="250" height="210" as="geometry" />
        </mxCell>
        <mxCell id="c16" value="&lt;b&gt;PubChemService&lt;/b&gt;&lt;br&gt;----------&lt;br&gt;(no attributes)&lt;br&gt;----------&lt;br&gt;browseByCas()&lt;br&gt;openSDSPage()" style="shape=rectangle;whiteSpace=wrap;html=1;fontSize=20;strokeWidth=3;" parent="1" vertex="1">
          <mxGeometry x="-436" y="557" width="250" height="190" as="geometry" />
        </mxCell>
        <mxCell id="e1" value="creates" style="edgeStyle=orthogonalEdgeStyle;html=1;fontSize=20;dashed=1;endArrow=block;strokeWidth=3;entryX=0;entryY=0.5;entryDx=0;entryDy=0;exitX=0.5;exitY=0;exitDx=0;exitDy=0;" parent="1" source="c1" target="c2" edge="1">
          <mxGeometry relative="1" as="geometry" />
        </mxCell>
        <mxCell id="e2" value="creates" style="edgeStyle=orthogonalEdgeStyle;html=1;fontSize=20;dashed=1;endArrow=block;strokeWidth=3;" parent="1" source="c2" target="c4" edge="1">
          <mxGeometry relative="1" as="geometry" />
        </mxCell>
        <mxCell id="e3" value="creates" style="edgeStyle=orthogonalEdgeStyle;html=1;fontSize=20;dashed=1;endArrow=block;strokeWidth=3;exitX=0.5;exitY=1;exitDx=0;exitDy=0;entryX=1;entryY=0.25;entryDx=0;entryDy=0;" parent="1" source="c2" target="c3" edge="1">
          <mxGeometry relative="1" as="geometry" />
        </mxCell>
        <mxCell id="e4" value="uses" style="edgeStyle=orthogonalEdgeStyle;html=1;fontSize=20;dashed=1;endArrow=block;strokeWidth=3;exitX=0.75;exitY=1;exitDx=0;exitDy=0;entryX=0.75;entryY=0;entryDx=0;entryDy=0;" parent="1" source="c4" target="c14" edge="1">
          <mxGeometry x="-0.1377" relative="1" as="geometry">
            <mxPoint as="offset" />
          </mxGeometry>
        </mxCell>
        <mxCell id="e5" value="returns" style="edgeStyle=orthogonalEdgeStyle;html=1;fontSize=20;dashed=1;endArrow=block;strokeWidth=3;exitX=0;exitY=0.75;exitDx=0;exitDy=0;" parent="1" source="c4" target="c15" edge="1">
          <mxGeometry relative="1" as="geometry" />
        </mxCell>
        <mxCell id="e6" value="controls" style="edgeStyle=orthogonalEdgeStyle;html=1;fontSize=20;strokeWidth=3;entryX=0.25;entryY=0;entryDx=0;entryDy=0;exitX=0.25;exitY=1;exitDx=0;exitDy=0;" parent="1" source="c3" target="c5" edge="1">
          <mxGeometry x="-0.2941" relative="1" as="geometry">
            <mxPoint as="offset" />
          </mxGeometry>
        </mxCell>
        <mxCell id="e7" value="controls" style="edgeStyle=orthogonalEdgeStyle;html=1;fontSize=20;strokeWidth=3;exitX=0.75;exitY=1;exitDx=0;exitDy=0;entryX=0;entryY=0.25;entryDx=0;entryDy=0;" parent="1" source="c3" target="c6" edge="1">
          <mxGeometry x="0.2264" relative="1" as="geometry">
            <mxPoint as="offset" />
          </mxGeometry>
        </mxCell>
        <mxCell id="e22" value="controls" style="edgeStyle=orthogonalEdgeStyle;html=1;fontSize=20;strokeWidth=3;exitX=0.25;exitY=1;exitDx=0;exitDy=0;entryX=0.25;entryY=0;entryDx=0;entryDy=0;" parent="1" source="c5" target="c9" edge="1">
          <mxGeometry relative="1" as="geometry" />
        </mxCell>
        <mxCell id="e24" value="has" style="edgeStyle=orthogonalEdgeStyle;html=1;fontSize=20;strokeWidth=3;exitX=1;exitY=0.5;exitDx=0;exitDy=0;" parent="1" source="c3" target="c15" edge="1">
          <mxGeometry relative="1" as="geometry" />
        </mxCell>
        <mxCell id="e8" value="has" style="edgeStyle=orthogonalEdgeStyle;html=1;fontSize=20;strokeWidth=3;exitX=1;exitY=0.75;exitDx=0;exitDy=0;entryX=0.5;entryY=1;entryDx=0;entryDy=0;" parent="1" source="c5" target="c15" edge="1">
          <mxGeometry x="-0.5768" y="2" relative="1" as="geometry">
            <Array as="points">
              <mxPoint x="864" y="-64" />
            </Array>
            <mxPoint as="offset" />
          </mxGeometry>
        </mxCell>
        <mxCell id="e10" value="uses" style="edgeStyle=orthogonalEdgeStyle;html=1;fontSize=20;dashed=1;endArrow=block;strokeWidth=3;exitX=0.75;exitY=1;exitDx=0;exitDy=0;entryX=0.25;entryY=0;entryDx=0;entryDy=0;" parent="1" source="c5" target="c13" edge="1">
          <mxGeometry relative="1" as="geometry">
            <Array as="points">
              <mxPoint x="367" y="70" />
              <mxPoint x="900" y="70" />
            </Array>
          </mxGeometry>
        </mxCell>
        <mxCell id="e11" value="uses" style="edgeStyle=orthogonalEdgeStyle;html=1;fontSize=20;dashed=1;endArrow=block;strokeWidth=3;exitX=0;exitY=0.25;exitDx=0;exitDy=0;" parent="1" source="c5" target="c16" edge="1">
          <mxGeometry relative="1" as="geometry" />
        </mxCell>
        <mxCell id="e23" value="uses" style="edgeStyle=orthogonalEdgeStyle;html=1;fontSize=20;dashed=1;endArrow=block;strokeWidth=3;exitX=0;exitY=0.75;exitDx=0;exitDy=0;" parent="1" source="c5" target="c10" edge="1">
          <mxGeometry x="-0.2453" relative="1" as="geometry">
            <mxPoint as="offset" />
          </mxGeometry>
        </mxCell>
        <mxCell id="e12" value="creates" style="edgeStyle=orthogonalEdgeStyle;html=1;fontSize=20;dashed=1;endArrow=block;strokeWidth=3;exitX=0;exitY=0.5;exitDx=0;exitDy=0;entryX=0.5;entryY=0;entryDx=0;entryDy=0;" parent="1" source="c5" target="c7" edge="1">
          <mxGeometry relative="1" as="geometry" />
        </mxCell>
        <mxCell id="e13" value="uses" style="edgeStyle=orthogonalEdgeStyle;html=1;fontSize=20;dashed=1;endArrow=block;strokeWidth=3;entryX=0.5;entryY=0;entryDx=0;entryDy=0;" parent="1" source="c6" target="c14" edge="1">
          <mxGeometry relative="1" as="geometry" />
        </mxCell>
        <mxCell id="e14" value="uses" style="edgeStyle=orthogonalEdgeStyle;html=1;fontSize=20;dashed=1;endArrow=block;strokeWidth=3;exitX=1;exitY=0.75;exitDx=0;exitDy=0;" parent="1" source="c6" target="c13" edge="1">
          <mxGeometry relative="1" as="geometry" />
        </mxCell>
        <mxCell id="e15" value="uses" style="edgeStyle=orthogonalEdgeStyle;html=1;fontSize=20;dashed=1;endArrow=block;strokeWidth=3;entryX=0.25;entryY=0;entryDx=0;entryDy=0;exitX=1;exitY=0.75;exitDx=0;exitDy=0;" parent="1" source="c7" target="c10" edge="1">
          <mxGeometry x="0.0694" relative="1" as="geometry">
            <mxPoint y="-1" as="offset" />
          </mxGeometry>
        </mxCell>
        <mxCell id="e16" value="uses" style="edgeStyle=orthogonalEdgeStyle;html=1;fontSize=20;dashed=1;endArrow=block;strokeWidth=3;entryX=0.75;entryY=0;entryDx=0;entryDy=0;" parent="1" source="c9" target="c16" edge="1">
          <mxGeometry x="-0.1826" y="5" relative="1" as="geometry">
            <mxPoint as="offset" />
          </mxGeometry>
        </mxCell>
        <mxCell id="e18" value="uses" style="edgeStyle=orthogonalEdgeStyle;html=1;fontSize=20;dashed=1;endArrow=block;strokeWidth=3;entryX=1;entryY=0.25;entryDx=0;entryDy=0;exitX=0.5;exitY=1;exitDx=0;exitDy=0;" parent="1" source="c13" target="c11" edge="1">
          <mxGeometry x="-0.719" relative="1" as="geometry">
            <mxPoint y="1" as="offset" />
          </mxGeometry>
        </mxCell>
        <mxCell id="e21" value="uses" style="edgeStyle=orthogonalEdgeStyle;html=1;fontSize=20;dashed=1;endArrow=block;strokeWidth=3;exitX=0;exitY=0.5;exitDx=0;exitDy=0;entryX=1;entryY=0.5;entryDx=0;entryDy=0;" parent="1" source="c14" target="c11" edge="1">
          <mxGeometry relative="1" as="geometry" />
        </mxCell>
        <mxCell id="e20" value="uses" style="edgeStyle=orthogonalEdgeStyle;html=1;fontSize=20;dashed=1;endArrow=block;strokeWidth=3;entryX=0.75;entryY=0;entryDx=0;entryDy=0;exitX=0.25;exitY=1;exitDx=0;exitDy=0;" parent="1" source="c13" target="c10" edge="1">
          <mxGeometry x="0.1788" relative="1" as="geometry">
            <Array as="points">
              <mxPoint x="909" y="385" />
              <mxPoint x="909" y="480" />
              <mxPoint x="172" y="480" />
            </Array>
            <mxPoint x="1" as="offset" />
          </mxGeometry>
        </mxCell>
        <mxCell id="c6" value="&lt;b&gt;AdminController&lt;/b&gt;&lt;br&gt;----------&lt;br&gt;userManager: UserManager&lt;br&gt;queryManager: QueryManager&lt;br&gt;----------&lt;br&gt;initialize()&lt;br&gt;addUser()&lt;br&gt;removeUser()&lt;br&gt;refreshTable()" style="shape=rectangle;whiteSpace=wrap;html=1;fontSize=20;strokeWidth=3;" parent="1" vertex="1">
          <mxGeometry x="526" y="-412" width="250" height="290" as="geometry" />
        </mxCell>
        <mxCell id="c5" value="&lt;b&gt;InventoryController&lt;/b&gt;&lt;br&gt;----------&lt;br&gt;metadata: MetadataService&lt;br&gt;queries: QueryManager&lt;br&gt;currentUser: User&lt;br&gt;----------&lt;br&gt;initialize()&lt;br&gt;loadTable()&lt;br&gt;doSearch()&lt;br&gt;promptCas()&lt;br&gt;showAddDialog()" style="shape=rectangle;whiteSpace=wrap;html=1;fontSize=20;strokeWidth=3;" parent="1" vertex="1">
          <mxGeometry x="164" y="-282" width="270" height="290" as="geometry" />
        </mxCell>
        <mxCell id="WME5fe6BU32kRXa7OrAG-6" value="uses" style="edgeStyle=orthogonalEdgeStyle;html=1;fontSize=20;dashed=1;endArrow=block;strokeWidth=3;entryX=0.5;entryY=0;entryDx=0;entryDy=0;exitX=0.5;exitY=1;exitDx=0;exitDy=0;" edge="1" parent="1" source="c5" target="c12">
          <mxGeometry x="-0.0004" relative="1" as="geometry">
            <mxPoint x="1011" y="430" as="sourcePoint" />
            <mxPoint x="424" y="500" as="targetPoint" />
            <mxPoint as="offset" />
            <Array as="points">
              <mxPoint x="299" y="120" />
              <mxPoint x="598" y="120" />
            </Array>
          </mxGeometry>
        </mxCell>
        <mxCell id="WME5fe6BU32kRXa7OrAG-7" value="uses" style="edgeStyle=orthogonalEdgeStyle;html=1;fontSize=20;dashed=1;endArrow=block;strokeWidth=3;entryX=0.5;entryY=0;entryDx=0;entryDy=0;exitX=0.5;exitY=1;exitDx=0;exitDy=0;" edge="1" parent="1" source="c12" target="c11">
          <mxGeometry x="-0.5825" relative="1" as="geometry">
            <mxPoint x="979" y="550" as="sourcePoint" />
            <mxPoint x="764" y="735" as="targetPoint" />
            <mxPoint y="-1" as="offset" />
            <Array as="points">
              <mxPoint x="599" y="390" />
              <mxPoint x="599" y="390" />
            </Array>
          </mxGeometry>
        </mxCell>
        <mxCell id="WME5fe6BU32kRXa7OrAG-8" value="uses" style="edgeStyle=orthogonalEdgeStyle;html=1;fontSize=20;dashed=1;endArrow=block;strokeWidth=3;entryX=1;entryY=0.5;entryDx=0;entryDy=0;exitX=0;exitY=0.5;exitDx=0;exitDy=0;" edge="1" parent="1" source="c13" target="c12">
          <mxGeometry x="-0.2269" relative="1" as="geometry">
            <mxPoint x="1069" y="540" as="sourcePoint" />
            <mxPoint x="854" y="725" as="targetPoint" />
            <mxPoint as="offset" />
          </mxGeometry>
        </mxCell>
        <mxCell id="WME5fe6BU32kRXa7OrAG-11" value="&lt;div&gt;CS225 Final Project UML Class Diagram:&lt;/div&gt;&lt;div&gt;Chemical Inventory System&lt;/div&gt;" style="text;html=1;align=center;verticalAlign=middle;resizable=0;points=[];autosize=1;strokeColor=none;fillColor=none;fontSize=46;" vertex="1" parent="1">
          <mxGeometry x="-510" y="-1100" width="870" height="120" as="geometry" />
        </mxCell>
      </root>
    </mxGraphModel>
  </diagram>
</mxfile>
